PathFileType	4	(X/Y/Z)	./resultDataOpenSim/trcMotMarkerGrf/sub10/qtm-14-02.trc
DataRate	CameraRate	NumFrames	NumMarkers	Units	OrigDataRate	OrigDataStartFrame	OrigNumFrames
250.000000	250.000000	5	24	m	250.000000	123	490
Frame#	Time	L.Toe.Tip			R.Toe.Tip			L.Ankle.Lat			R.Ankle.Lat			L.Ankle.Med			R.Ankle.Med			L.Heel			R.Heel			L.Knee.Lat			R.Knee.Lat			L.Knee.Med			R.Knee.Med			L.Thigh.Upper			R.Thigh.Upper			L.ASIS			R.ASIS			V.Sacral			L.Acromium			R.Acromium			C7			L.Elbow			R.Elbow			L.Wrist.Lat			R.Wrist.Lat
		X1	Y1	Z1	X2	Y2	Z2	X3	Y3	Z3	X4	Y4	Z4	X5	Y5	Z5	X6	Y6	Z6	X7	Y7	Z7	X8	Y8	Z8	X9	Y9	Z9	X10	Y10	Z10	X11	Y11	Z11	X12	Y12	Z12	X13	Y13	Z13	X14	Y14	Z14	X15	Y15	Z15	X16	Y16	Z16	X17	Y17	Z17	X18	Y18	Z18	X19	Y19	Z19	X20	Y20	Z20	X21	Y21	Z21	X22	Y22	Z22	X23	Y23	Z23	X24	Y24	Z24

123	0.488	-0.18727141	0.10086678	-0.10731894	-0.70151323	0.039083261	0.0014095129	-0.31943641	0.080505965	-0.13912503	-0.84591089	0.055657667	0.030460318	-0.31693243	0.11271093	-0.058196919	-0.82119856	0.083547761	-0.051320299	-0.36774849	0.032414939	-0.091574742	-0.89385754	0.033210199	-0.021604631	-0.42049081	0.45630022	-0.17694896	-0.7368352	0.44460866	0.086310277	-0.40555685	0.44436557	-0.057181346	-0.71893989	0.44681468	-0.042763893	-0.57553018	0.81810686	-0.2347283	-0.65566023	0.85460003	0.14267227	-0.52873167	0.92686558	-0.16140066	-0.56436233	0.93894735	0.080665416	-0.7408384	0.9508613	-0.071162572	-0.57860548	1.405694	-0.18926745	-0.60212202	1.3957611	0.13128959	-0.67108881	1.4325989	-0.036860225	-0.73663502	1.1073138	-0.25996913	-0.65870333	1.0535827	0.22899106	-0.6688639	0.87843967	-0.31998243	-0.45446201	0.91226741	0.27039788
124	0.492	-0.17205424	0.10499181	-0.10438062	-0.70140392	0.039075628	0.0013587164	-0.30332471	0.081342748	-0.13768062	-0.84573408	0.055807316	0.030294983	-0.30210224	0.11387867	-0.056943733	-0.8208229	0.083517762	-0.051553904	-0.35087917	0.032172309	-0.090406611	-0.89381306	0.033457048	-0.021766559	-0.41377075	0.45464827	-0.17644503	-0.73358024	0.44383412	0.08597074	-0.39934662	0.44253172	-0.05650145	-0.71556746	0.44609589	-0.042994079	-0.56861998	0.81695076	-0.23456111	-0.65110509	0.85356631	0.14249426	-0.52180753	0.92549255	-0.16108516	-0.55922683	0.93769681	0.08085201	-0.73497009	0.94956662	-0.071517605	-0.57282163	1.4040553	-0.18907931	-0.59636525	1.3942929	0.13135143	-0.66535334	1.4310923	-0.036715065	-0.7328171	1.1068548	-0.26103531	-0.6509674	1.0519732	0.23024369	-0.66619382	0.87722154	-0.31899566	-0.44459193	0.91305772	0.27042092
125	0.496	-0.15738955	0.10906735	-0.10174492	-0.70131193	0.039040637	0.0012938005	-0.28775182	0.082316441	-0.13644787	-0.84552574	0.055990284	0.030112024	-0.28774672	0.11507342	-0.055851167	-0.82043206	0.083488186	-0.051785759	-0.33457577	0.03213008	-0.089479548	-0.8937305	0.033747349	-0.021985761	-0.40687919	0.45306988	-0.17581389	-0.73024978	0.44299318	0.08562233	-0.39316337	0.44064734	-0.055734511	-0.71211844	0.44534731	-0.043232601	-0.56163404	0.81570876	-0.23432393	-0.64656404	0.85252591	0.14231926	-0.51488374	0.92407967	-0.16072484	-0.55410916	0.93642449	0.081060566	-0.72986009	0.94827074	-0.071659207	-0.56704101	1.4023767	-0.18890151	-0.59056918	1.3927863	0.1314192	-0.65995097	1.4295531	-0.036477342	-0.72905242	1.1063469	-0.2622936	-0.64318035	1.0503454	0.23146007	-0.66331875	0.87598943	-0.31789773	-0.43480562	0.91379022	0.27035624
126	0.5	-0.14328778	0.11301191	-0.09947609	-0.70121982	0.038993052	0.0012429608	-0.27276578	0.083380918	-0.13545212	-0.84530304	0.05619757	0.029899514	-0.27392934	0.11622265	-0.054991374	-0.82003731	0.083459988	-0.052002799	-0.31893349	0.032251558	-0.088947061	-0.89359077	0.034062057	-0.022302814	-0.39990429	0.45154529	-0.17503789	-0.72673565	0.44213103	0.085316932	-0.38702853	0.43873381	-0.054869593	-0.70847528	0.44458237	-0.043480573	-0.55452741	0.81437985	-0.23402341	-0.64203968	0.85147606	0.14214078	-0.50793064	0.92264378	-0.16030948	-0.54901779	0.93512952	0.081303549	-0.72533957	0.94695945	-0.071507755	-0.56126342	1.4006626	-0.1887382	-0.58471457	1.3912419	0.13149216	-0.65439974	1.4279834	-0.036289984	-0.72521981	1.1057442	-0.26333514	-0.63530006	1.0486928	0.23261127	-0.66011329	0.87476117	-0.31666885	-0.42511327	0.91446173	0.27021185
127	0.504	-0.12974743	0.11671147	-0.097595251	-0.7011226	0.038945342	0.0012164553	-0.25839554	0.084492779	-0.13470086	-0.84509622	0.056417695	0.029683629	-0.26072075	0.11726978	-0.054373705	-0.81963801	0.083441376	-0.052201616	-0.30401524	0.032503039	-0.088978534	-0.89341826	0.034378571	-0.02267154	-0.3929688	0.45004805	-0.17415065	-0.72302567	0.44127794	0.085051354	-0.38094779	0.43681602	-0.053914494	-0.70461911	0.44379583	-0.043760361	-0.54728558	0.81296032	-0.23366601	-0.63753163	0.85041021	0.14195159	-0.50094283	0.92119045	-0.15983467	-0.54392885	0.93381429	0.081577178	-0.72052226	0.94547043	-0.071182316	-0.55546267	1.3989153	-0.18858776	-0.57881853	1.3896587	0.13156151	-0.64843402	1.4263955	-0.036229813	-0.72126303	1.1050086	-0.26395178	-0.6273129	1.0470114	0.23368511	-0.65663786	0.87353155	-0.31534464	-0.41552286	0.91508212	0.26999277
